<svg xmlns="http://www.w3.org/2000/svg" viewBox="0 0 102.24 47.95"><defs><style>.cls-1{fill:#fff;}</style></defs><title>strong_cloudy_1</title><g id="圖層_2" data-name="圖層 2"><g id="Icons"><path class="cls-1" d="M30,48h59.6a12.89,12.89,0,0,0,0-25.78h-.25a1.52,1.52,0,0,1-1.43-1l-.11-.31A11.15,11.15,0,0,0,76,12.05a11.29,11.29,0,0,0-2.43.5h0a1.52,1.52,0,0,1-1.76-.68l-.06-.11A23.46,23.46,0,0,0,51.63,0,23,23,0,0,0,49,.18h0A23.81,23.81,0,0,0,28.57,19.8l0,.14a1.53,1.53,0,0,1-1.17,1.22l-.11,0A13.33,13.33,0,0,0,16.8,34.41C16.8,40.65,21.11,48,30,48Z"/><path class="cls-1" d="M13.8,34.41A16.35,16.35,0,0,1,25,18.69a1.4,1.4,0,0,0,.93-1A27.12,27.12,0,0,1,31,7.27a1,1,0,0,0-.6-1.58A17.67,17.67,0,0,0,27,5.36,16.48,16.48,0,0,0,25,5.51,18.48,18.48,0,0,0,9.14,20.74l0,.1a1.17,1.17,0,0,1-.91.95l-.08,0A10.34,10.34,0,0,0,0,32.08c0,4.84,3.34,10.51,10.28,10.51h4a1,1,0,0,0,.91-1.38A17.67,17.67,0,0,1,13.8,34.41Z"/></g></g></svg>