<svg xmlns="http://www.w3.org/2000/svg" viewBox="0 0 63.96 66.99"><defs><style>.cls-1{fill:#fc0;}</style></defs><title>clear_sunny</title><g id="圖層_2" data-name="圖層 2"><g id="Icons"><circle class="cls-1" cx="31.98" cy="33.5" r="17.11" transform="translate(-14.22 30.26) rotate(-42.33)"/><path class="cls-1" d="M32,10a2.5,2.5,0,0,1-2.5-2.5v-5a2.5,2.5,0,1,1,5,0v5A2.5,2.5,0,0,1,32,10Z"/><path class="cls-1" d="M16.69,15a2.5,2.5,0,0,1-2-1l-2.93-4a2.5,2.5,0,0,1,4-2.94l2.93,4a2.5,2.5,0,0,1-.55,3.49A2.44,2.44,0,0,1,16.69,15Z"/><path class="cls-1" d="M7.24,28a2.53,2.53,0,0,1-.77-.12L1.73,26.3a2.5,2.5,0,0,1,1.54-4.76L8,23.08A2.5,2.5,0,0,1,7.24,28Z"/><path class="cls-1" d="M2.5,45.58A2.52,2.52,0,0,1,.12,43.85,2.5,2.5,0,0,1,1.73,40.7l4.74-1.54A2.5,2.5,0,1,1,8,43.91L3.27,45.45A2.27,2.27,0,0,1,2.5,45.58Z"/><path class="cls-1" d="M13.76,61.07a2.49,2.49,0,0,1-2-4l2.93-4a2.5,2.5,0,0,1,4,2.94l-2.93,4A2.47,2.47,0,0,1,13.76,61.07Z"/><path class="cls-1" d="M32,67a2.5,2.5,0,0,1-2.5-2.5v-5a2.5,2.5,0,1,1,5,0v5A2.5,2.5,0,0,1,32,67Z"/><path class="cls-1" d="M50.2,61.07a2.47,2.47,0,0,1-2-1l-2.93-4a2.5,2.5,0,0,1,4-2.94l2.93,4a2.49,2.49,0,0,1-2,4Z"/><path class="cls-1" d="M61.46,45.58a2.27,2.27,0,0,1-.77-.13L56,43.91a2.5,2.5,0,1,1,1.54-4.75l4.74,1.54a2.5,2.5,0,0,1-.77,4.88Z"/><path class="cls-1" d="M56.72,28A2.5,2.5,0,0,1,56,23.08l4.74-1.54a2.5,2.5,0,1,1,1.54,4.76l-4.74,1.54A2.63,2.63,0,0,1,56.72,28Z"/><path class="cls-1" d="M47.27,15a2.44,2.44,0,0,1-1.47-.48A2.5,2.5,0,0,1,45.25,11l2.93-4a2.5,2.5,0,0,1,4,2.94l-2.93,4A2.5,2.5,0,0,1,47.27,15Z"/></g></g></svg>