<svg xmlns="http://www.w3.org/2000/svg" viewBox="0 0 213.77 183.19"><defs><style>.cls-1{fill:#ffdd15;}.cls-2{fill:#fff;}</style></defs><title>clear_night</title><g id="圖層_2" data-name="圖層 2"><g id="Layer_1" data-name="Layer 1"><path class="cls-1" d="M213.77,102.4C202.61,129.16,175.64,148,144.14,148,102.64,148,69,115.29,69,74.92c0-37.68,29.3-68.71,66.93-72.69a62.26,62.26,0,0,0-27,51.08c0,34.69,28.91,62.81,64.55,62.81A65.35,65.35,0,0,0,213.77,102.4Z"/><polygon class="cls-2" points="67.22 170.12 49.88 169.59 39.6 183.19 34.76 166.98 18.29 161.66 32.64 152.17 32.74 135.29 46.45 145.64 62.99 140.51 57.11 156.4 67.22 170.12"/><polygon class="cls-2" points="36.57 26.03 23.61 25.64 15.93 35.8 12.31 23.68 0 19.71 10.73 12.62 10.8 0 21.05 7.73 33.41 3.9 29.01 15.78 36.57 26.03"/><polygon class="cls-2" points="206.6 52.06 197.76 46.59 188.11 50.58 190.72 40.7 183.84 33 194.31 32.37 199.7 23.62 203.55 33.11 213.77 35.4 205.69 41.9 206.6 52.06"/></g></g></svg>