<svg xmlns="http://www.w3.org/2000/svg" viewBox="0 0 208.54 105.68"><defs><style>.cls-1{fill:#ccc;}.cls-2{fill:#e6e6e6;}</style></defs><title>cloudy</title><g id="圖層_2" data-name="圖層 2"><g id="Layer_2" data-name="Layer 2"><path class="cls-1" d="M208.54,67.08a38.32,38.32,0,0,0-38.32-38.32h-.41a42.59,42.59,0,0,0-82.6,9.05,40.15,40.15,0,0,0-6.9-.6c-20.44,0-37,15.26-37,34.09,0,17.9,15,32.56,34,34a31,31,0,0,0,4.94.4h87.24a31.49,31.49,0,0,0,6.77-.75A38.34,38.34,0,0,0,208.54,67.08Z"/><path class="cls-2" d="M165.24,67.08a38.32,38.32,0,0,0-38.32-38.32h-.41a42.59,42.59,0,0,0-82.6,9.05,40.15,40.15,0,0,0-6.9-.6c-20.44,0-37,15.26-37,34.09,0,17.9,15,32.56,34,34a31,31,0,0,0,4.94.4h87.24a31.49,31.49,0,0,0,6.77-.75A38.34,38.34,0,0,0,165.24,67.08Z"/></g></g></svg>