<svg xmlns="http://www.w3.org/2000/svg" viewBox="0 0 165.24 177.25"><defs><style>.cls-1{fill:#e6e6e6;}.cls-2{fill:none;stroke:#e6e6e6;stroke-linecap:round;stroke-miterlimit:10;stroke-width:8.42px;stroke-dasharray:30.33 16.85;}.cls-3{fill:#f7fc1d;}</style></defs><title>cloud_thunder_shower</title><g id="圖層_2" data-name="圖層 2"><g id="Layer_2" data-name="Layer 2"><path class="cls-1" d="M165.24,67.08a38.32,38.32,0,0,0-38.32-38.32h-.41a42.59,42.59,0,0,0-82.6,9.05,40.15,40.15,0,0,0-6.9-.6c-20.44,0-37,15.26-37,34.09,0,17.9,15,32.56,34,34a31,31,0,0,0,4.94.4h87.24a31.49,31.49,0,0,0,6.77-.75A38.34,38.34,0,0,0,165.24,67.08Z"/><line class="cls-2" x1="113.21" y1="93.56" x2="95.82" y2="153.4"/><line class="cls-2" x1="96.91" y1="82.92" x2="79.52" y2="142.76"/><polygon class="cls-3" points="53.36 105.68 75.35 105.68 59.24 136.25 69.63 136.25 47.23 177.25 52.09 143.21 39.56 143.21 53.36 105.68"/></g></g></svg>