<svg xmlns="http://www.w3.org/2000/svg" viewBox="0 0 165.24 137.04"><defs><style>.cls-1{fill:#e6e6e6;}.cls-2{fill:none;stroke:#e6e6e6;stroke-linecap:round;stroke-miterlimit:10;stroke-width:8.42px;}</style></defs><title>cloudy_shower_1</title><g id="圖層_2" data-name="圖層 2"><g id="Layer_2" data-name="Layer 2"><path class="cls-1" d="M165.24,67.08A38.34,38.34,0,0,1,133,104.93a31.42,31.42,0,0,1-6.77.75H114.29l4.95-17.49H39.46L34,105.28c-19-1.41-34-16.07-34-34C0,52.48,16.57,37.22,37,37.22a40.15,40.15,0,0,1,6.9.6,42.59,42.59,0,0,1,82.6-9h.41A38.32,38.32,0,0,1,165.24,67.08Z"/><line class="cls-2" x1="123.95" y1="61.3" x2="106.56" y2="121.14"/><line class="cls-2" x1="107.25" y1="50.4" x2="89.86" y2="110.24"/><line class="cls-2" x1="84.22" y1="61.3" x2="66.83" y2="121.14"/><line class="cls-2" x1="66.57" y1="50.4" x2="49.19" y2="110.24"/><path class="cls-1" d="M50.13,122.21a4.42,4.42,0,1,1-4.42-4.41A4.42,4.42,0,0,1,50.13,122.21Z"/><path class="cls-1" d="M67.92,132.62a4.42,4.42,0,1,1-4.42-4.42A4.42,4.42,0,0,1,67.92,132.62Z"/><path class="cls-1" d="M107.64,132.62a4.42,4.42,0,1,1-4.41-4.42A4.41,4.41,0,0,1,107.64,132.62Z"/><path class="cls-1" d="M90.8,122.21a4.42,4.42,0,1,1-4.41-4.41A4.41,4.41,0,0,1,90.8,122.21Z"/></g></g></svg>