<svg xmlns="http://www.w3.org/2000/svg" viewBox="0 0 207.71 145.19"><defs><style>.cls-1{fill:#ccc;}.cls-2{fill:#e6e6e6;}.cls-3{fill:none;stroke:#e6e6e6;stroke-linecap:round;stroke-miterlimit:10;stroke-width:8.42px;stroke-dasharray:30.33 16.85;}</style></defs><title>cloudy_shower</title><g id="圖層_2" data-name="圖層 2"><g id="Layer_2" data-name="Layer 2"><path class="cls-1" d="M207.71,67.08a38.32,38.32,0,0,0-38.32-38.32H169a42.59,42.59,0,0,0-82.6,9.05c-1.13-.19,20.56,10.71,29.48,27.93,8.69,16.8,4.6,39.93,4.6,39.93h48.19a31.49,31.49,0,0,0,6.77-.75A38.34,38.34,0,0,0,207.71,67.08Z"/><path class="cls-2" d="M165.24,67.08A38.34,38.34,0,0,1,133,104.93a31.42,31.42,0,0,1-6.77.75H114.29l4.95-17.49H39.46L34,105.28c-19-1.41-34-16.07-34-34C0,52.48,16.57,37.22,37,37.22a40.15,40.15,0,0,1,6.9.6,42.59,42.59,0,0,1,82.6-9h.41A38.32,38.32,0,0,1,165.24,67.08Z"/><line class="cls-3" x1="117.56" y1="81.14" x2="100.18" y2="140.98"/><line class="cls-3" x1="101.26" y1="70.5" x2="83.88" y2="130.34"/><line class="cls-3" x1="77.83" y1="81.14" x2="60.45" y2="140.98"/><line class="cls-3" x1="60.59" y1="70.5" x2="43.2" y2="130.34"/></g></g></svg>