<svg xmlns="http://www.w3.org/2000/svg" viewBox="0 0 208.54 154.99"><defs><style>.cls-1{fill:#ccc;}.cls-2{fill:#f7e116;}.cls-3{fill:#e6e6e6;}</style></defs><title>cloudy_sunny_1</title><g id="圖層_2" data-name="圖層 2"><g id="Layer_2" data-name="Layer 2"><path class="cls-1" d="M208.54,116.4a38.33,38.33,0,0,0-38.32-38.33h-.41a42.58,42.58,0,0,0-82.6,9.06,40.15,40.15,0,0,0-6.9-.6c-20.44,0-37,15.26-37,34.09,0,17.89,15,32.55,34,34a31,31,0,0,0,4.94.4h87.24a30.87,30.87,0,0,0,6.77-.75A38.32,38.32,0,0,0,208.54,116.4Z"/><polygon class="cls-2" points="136.86 0 143.21 28.8 130.52 28.8 136.86 0"/><polygon class="cls-2" points="87.93 20.27 112.79 36.15 103.81 45.12 87.93 20.27"/><polygon class="cls-2" points="67.66 69.2 96.47 62.86 96.47 75.54 67.66 69.2"/><polygon class="cls-2" points="87.93 118.13 103.81 93.28 112.79 102.25 87.93 118.13"/><polygon class="cls-2" points="136.86 138.4 130.52 109.59 143.21 109.59 136.86 138.4"/><polygon class="cls-2" points="185.79 118.13 160.94 102.25 169.91 93.28 185.79 118.13"/><polygon class="cls-2" points="206.06 69.2 177.26 75.54 177.26 62.86 206.06 69.2"/><polygon class="cls-2" points="185.79 20.27 169.91 45.12 160.94 36.15 185.79 20.27"/><circle class="cls-2" cx="136.86" cy="69.2" r="32.49"/><path class="cls-3" d="M165.24,116.4a38.33,38.33,0,0,0-38.32-38.33h-.41a42.58,42.58,0,0,0-82.6,9.06,40.15,40.15,0,0,0-6.9-.6c-20.44,0-37,15.26-37,34.09,0,17.89,15,32.55,34,34a31,31,0,0,0,4.94.4h87.24a30.87,30.87,0,0,0,6.77-.75A38.32,38.32,0,0,0,165.24,116.4Z"/></g></g></svg>