<svg xmlns="http://www.w3.org/2000/svg" viewBox="0 0 208.54 137.75"><defs><style>.cls-1{fill:#ccc;}.cls-2{fill:#f7e116;}.cls-3{fill:#e6e6e6;}</style></defs><title>cloudy_night</title><g id="圖層_2" data-name="圖層 2"><g id="Layer_2" data-name="Layer 2"><path class="cls-1" d="M208.54,99.15a38.32,38.32,0,0,0-38.32-38.32h-.41a42.59,42.59,0,0,0-82.6,9,40.15,40.15,0,0,0-6.9-.6c-20.44,0-37,15.27-37,34.09,0,17.9,15,32.56,34,34a31,31,0,0,0,4.94.4h87.24a31.49,31.49,0,0,0,6.77-.75A38.34,38.34,0,0,0,208.54,99.15Z"/><path class="cls-2" d="M133,45.42A38.62,38.62,0,0,1,139.16,0a38.6,38.6,0,1,0,35.35,64.75A38.61,38.61,0,0,1,133,45.42Z"/><path class="cls-3" d="M165.24,99.15a38.32,38.32,0,0,0-38.32-38.32h-.41a42.59,42.59,0,0,0-82.6,9,40.15,40.15,0,0,0-6.9-.6c-20.44,0-37,15.27-37,34.09,0,17.9,15,32.56,34,34a31,31,0,0,0,4.94.4h87.24A31.49,31.49,0,0,0,133,137,38.34,38.34,0,0,0,165.24,99.15Z"/></g></g></svg>