<svg xmlns="http://www.w3.org/2000/svg" viewBox="0 0 153.88 138.4"><defs><style>.cls-1{fill:#f7e116;}.cls-2{fill:#e6e6e6;}</style></defs><title>mostly_clear</title><g id="圖層_2" data-name="圖層 2"><g id="Layer_2" data-name="Layer 2"><polygon class="cls-1" points="69.2 0 75.54 28.8 62.86 28.8 69.2 0"/><polygon class="cls-1" points="20.27 20.27 45.12 36.15 36.15 45.12 20.27 20.27"/><polygon class="cls-1" points="0 69.2 28.8 62.86 28.8 75.54 0 69.2"/><polygon class="cls-1" points="20.27 118.13 36.15 93.28 45.12 102.25 20.27 118.13"/><polygon class="cls-1" points="69.2 138.4 62.86 109.59 75.54 109.59 69.2 138.4"/><polygon class="cls-1" points="118.13 118.13 93.28 102.25 102.25 93.28 118.13 118.13"/><polygon class="cls-1" points="138.4 69.2 109.59 75.54 109.59 62.86 138.4 69.2"/><polygon class="cls-1" points="118.13 20.27 102.25 45.12 93.28 36.15 118.13 20.27"/><circle class="cls-1" cx="69.2" cy="69.2" r="32.49"/><path class="cls-2" d="M153.88,69.71a18.45,18.45,0,0,0-18.45-18.45h-.2a20.5,20.5,0,0,0-39.77,4.36,19,19,0,0,0-3.32-.29c-9.84,0-17.82,7.34-17.82,16.41,0,8.62,7.21,15.68,16.38,16.35a14.3,14.3,0,0,0,2.37.2h42a14.74,14.74,0,0,0,3.26-.37A18.45,18.45,0,0,0,153.88,69.71Z"/></g></g></svg>