<svg xmlns="http://www.w3.org/2000/svg" viewBox="0 0 174.51 137.12"><defs><style>.cls-1{fill:#f7e116;}.cls-2{fill:#e6e6e6;}</style></defs><title>night_cloud</title><g id="圖層_2" data-name="圖層 2"><g id="Layer_2" data-name="Layer 2"><path class="cls-1" d="M133,45.42A38.62,38.62,0,0,1,139.16,0a38.6,38.6,0,1,0,35.35,64.75A38.61,38.61,0,0,1,133,45.42Z"/><path class="cls-2" d="M165.24,98.53A38.33,38.33,0,0,0,126.92,60.2l-.41,0a42.58,42.58,0,0,0-82.6,9,40.15,40.15,0,0,0-6.9-.6c-20.44,0-37,15.26-37,34.09,0,17.89,15,32.55,34,34a32.18,32.18,0,0,0,4.94.39h87.24a30.87,30.87,0,0,0,6.77-.75A38.32,38.32,0,0,0,165.24,98.53Z"/></g></g></svg>