<svg xmlns="http://www.w3.org/2000/svg" viewBox="0 0 85.45 62.86"><defs><style>.cls-1{fill:#fff;}.cls-2{fill:#00d5ff;}</style></defs><title>partly_cloud_shower</title><g id="圖層_2" data-name="圖層 2"><g id="Icons"><path class="cls-1" d="M72.84,48H13.24A13.37,13.37,0,0,1,0,35.21H0V35a4.89,4.89,0,0,1,0-.54A13.34,13.34,0,0,1,10.47,21.18l.11,0a1.53,1.53,0,0,0,1.17-1.22l0-.14A23.81,23.81,0,0,1,32.16.18h0A23,23,0,0,1,34.83,0,23.45,23.45,0,0,1,55,11.76l.06.11a1.53,1.53,0,0,0,1.77.68h0a11,11,0,0,1,14.24,8.3l.1.31a1.53,1.53,0,0,0,1.43,1h.25a12.89,12.89,0,0,1,0,25.78Z"/><path class="cls-2" d="M17.15,62.52a4,4,0,0,0,5.17-2c1.06-2.25.53-6.52.07-7.88a.75.75,0,0,0-1-.46c-1.35.53-4.93,2.76-6,5.07A4,4,0,0,0,17.15,62.52Z"/><path class="cls-2" d="M31.09,62.52a4,4,0,0,0,5.17-2c1.06-2.25.52-6.52.07-7.88a.75.75,0,0,0-1-.46c-1.35.53-4.93,2.76-6,5.07A4,4,0,0,0,31.09,62.52Z"/><path class="cls-2" d="M45,62.52a4,4,0,0,0,5.17-2c1-2.25.52-6.52.07-7.88a.75.75,0,0,0-.4-.44.74.74,0,0,0-.6,0c-1.34.53-4.92,2.76-6,5.07A4,4,0,0,0,45,62.52Z"/><path class="cls-2" d="M59,62.52a4,4,0,0,0,5.18-2c1-2.25.52-6.52.07-7.88a.75.75,0,0,0-.4-.44.74.74,0,0,0-.6,0c-1.34.53-4.93,2.76-6,5.07A4,4,0,0,0,59,62.52Z"/></g></g></svg>