<svg xmlns="http://www.w3.org/2000/svg" viewBox="0 0 206.94 154.99"><defs><style>.cls-1{fill:#f7e116;}.cls-2{fill:#e6e6e6;}</style></defs><title>sunny_cloud</title><g id="圖層_2" data-name="圖層 2"><g id="Layer_2" data-name="Layer 2"><polygon class="cls-1" points="137.74 0 144.09 28.8 131.4 28.8 137.74 0"/><polygon class="cls-1" points="88.81 20.27 113.66 36.15 104.69 45.12 88.81 20.27"/><polygon class="cls-1" points="68.54 69.2 97.35 62.86 97.35 75.54 68.54 69.2"/><polygon class="cls-1" points="88.81 118.13 104.69 93.28 113.66 102.25 88.81 118.13"/><polygon class="cls-1" points="137.74 138.4 131.4 109.59 144.09 109.59 137.74 138.4"/><polygon class="cls-1" points="186.67 118.13 161.82 102.25 170.79 93.28 186.67 118.13"/><polygon class="cls-1" points="206.94 69.2 178.13 75.54 178.13 62.86 206.94 69.2"/><polygon class="cls-1" points="186.67 20.27 170.79 45.12 161.82 36.15 186.67 20.27"/><circle class="cls-1" cx="137.74" cy="69.2" r="32.49"/><path class="cls-2" d="M165.24,116.4a38.33,38.33,0,0,0-38.32-38.33h-.41a42.58,42.58,0,0,0-82.6,9.06,40.15,40.15,0,0,0-6.9-.6c-20.44,0-37,15.26-37,34.09,0,17.89,15,32.55,34,34a31,31,0,0,0,4.94.4h87.24a30.87,30.87,0,0,0,6.77-.75A38.32,38.32,0,0,0,165.24,116.4Z"/></g></g></svg>