<svg xmlns="http://www.w3.org/2000/svg" viewBox="0 0 109.9 93.29"><defs><style>.cls-1{fill:#fff;}.cls-2{fill:#fc0;}.cls-3{fill:#00d5ff;}</style></defs><title>thunder_storm_shower_afternoon</title><g id="圖層_2" data-name="圖層 2"><g id="Icons"><path class="cls-1" d="M13.8,57.42A16.35,16.35,0,0,1,25,41.7a1.41,1.41,0,0,0,.93-1,27.12,27.12,0,0,1,5-10.41,1,1,0,0,0-.6-1.58A17.67,17.67,0,0,0,27,28.37a16.48,16.48,0,0,0-2.06.15A18.47,18.47,0,0,0,9.14,43.75l0,.1a1.17,1.17,0,0,1-.91.95l-.08,0A10.34,10.34,0,0,0,0,55.09C0,59.93,3.34,65.6,10.28,65.6h4a1,1,0,0,0,.91-1.38A17.67,17.67,0,0,1,13.8,57.42Z"/><path class="cls-1" d="M89.9,71H30.3A13.37,13.37,0,0,1,17.1,58.22h0l0-.26c0-.18,0-.36,0-.54A13.33,13.33,0,0,1,27.53,44.19l.1,0A1.5,1.5,0,0,0,28.8,43l0-.14A23.81,23.81,0,0,1,49.22,23.19h0A22.94,22.94,0,0,1,51.88,23,23.47,23.47,0,0,1,72.05,34.77l.06.11a1.52,1.52,0,0,0,1.76.68h0a10.6,10.6,0,0,1,2.43-.5,11.15,11.15,0,0,1,11.81,8.8l.11.31a1.51,1.51,0,0,0,1.43,1h.25A12.89,12.89,0,0,1,89.9,71Z"/><path class="cls-2" d="M75.25,10a2.5,2.5,0,0,1-2.49-2.31l-.39-5a2.5,2.5,0,0,1,5-.38l.39,5A2.51,2.51,0,0,1,75.45,10Z"/><path class="cls-2" d="M60.39,16.1a2.5,2.5,0,0,1-1.9-.87l-3.23-3.8a2.5,2.5,0,1,1,3.8-3.24L62.3,12a2.49,2.49,0,0,1-1.91,4.12Z"/><path class="cls-2" d="M107.4,43.17a2.44,2.44,0,0,1-.59-.07L102,41.93a2.5,2.5,0,1,1,1.17-4.86L108,38.24a2.5,2.5,0,0,1-.58,4.93Z"/><path class="cls-2" d="M101.31,26a2.5,2.5,0,0,1-1-4.81l4.6-1.9a2.5,2.5,0,1,1,1.91,4.62l-4.61,1.91A2.62,2.62,0,0,1,101.31,26Z"/><path class="cls-2" d="M90.88,13.74a2.5,2.5,0,0,1-2.13-3.81l2.61-4.25A2.5,2.5,0,1,1,95.62,8.3L93,12.55A2.51,2.51,0,0,1,90.88,13.74Z"/><path class="cls-2" d="M77.23,32a11.45,11.45,0,0,0-1.17,0c-.36,0-.72.07-1.08.13a1.4,1.4,0,0,1-1.39-.61,26.6,26.6,0,0,0-8.46-7.91,1.3,1.3,0,0,1-.3-2,17,17,0,0,1,13.43-5.36c7.6.41,13.95,5.26,15.55,12.7.83,3.87-.43,8.86-2.24,12.17A.8.8,0,0,1,90.11,41C88.84,36.94,85.18,32.17,77.23,32Z"/><path class="cls-3" d="M50.16,67c-1.46,2.07-1,4,1.76,4L55,71c1.82,0,2.07,1.3,1.6,2.71L49.26,92.05a.9.9,0,0,0,1.61.8l14.4-23.6c1.37-2.31.52-4-2.14-4l-4.08,0c-1.57,0-2-.59-1.21-2.12l5.8-11.63a.9.9,0,0,0-1.54-.93Z"/><path class="cls-3" d="M29.07,85.51a4,4,0,0,0,5.17-2c1.06-2.25.52-6.51.07-7.87a.76.76,0,0,0-.39-.45.78.78,0,0,0-.6,0c-1.35.54-4.93,2.76-6,5.08A4,4,0,0,0,29.07,85.51Z"/><path class="cls-3" d="M42,85.51a4,4,0,0,0,5.17-2c1.06-2.25.52-6.51.07-7.87a.76.76,0,0,0-.39-.45.8.8,0,0,0-.61,0c-1.34.54-4.92,2.76-6,5.08A4,4,0,0,0,42,85.51Z"/><path class="cls-3" d="M65.94,85.51a4,4,0,0,0,5.18-2c1-2.25.52-6.51.07-7.87a.76.76,0,0,0-1-.47c-1.34.54-4.92,2.76-6,5.08A4,4,0,0,0,65.94,85.51Z"/><path class="cls-3" d="M78.88,85.51a4,4,0,0,0,5.18-2c1-2.25.52-6.51.07-7.87a.77.77,0,0,0-.4-.45.78.78,0,0,0-.6,0c-1.34.54-4.93,2.76-6,5.08A4,4,0,0,0,78.88,85.51Z"/></g></g></svg>