<?xml version="1.0" encoding="iso-8859-1"?>
<!-- Generator: Adobe Illustrator 19.0.0, SVG Export Plug-In . SVG Version: 6.00 Build 0)  -->
<svg version="1.1" id="Capa_1" xmlns="http://www.w3.org/2000/svg" xmlns:xlink="http://www.w3.org/1999/xlink" x="0px" y="0px"
	 viewBox="0 0 512 512" style="enable-background:new 0 0 512 512;" xml:space="preserve">
<polygon style="fill:#A36338;" points="316.751,60.194 116.43,60.194 75.04,312.179 358.142,312.179 "/>
<polygon style="fill:#7A4E30;" points="116.43,60.194 75.04,312.179 129.016,312.179 170.406,60.194 "/>
<polygon style="fill:#676775;" points="287.577,60.194 238.695,60.194 196.542,60.194 145.603,60.194 104.213,312.179 
	196.542,312.179 238.695,312.179 329.031,312.179 "/>
<g>
	<rect x="212.48" y="60.196" style="fill:#4C4C59;" width="44.209" height="251.98"/>
	<polygon style="fill:#4C4C59;" points="145.603,60.194 104.213,312.179 129.184,312.179 170.575,60.194 	"/>
</g>
<rect x="195.516" y="60.196" style="fill:#FFD278;" width="44.209" height="251.98"/>
<rect x="195.516" y="60.196" style="fill:#FFBF4D;" width="22.104" height="251.98"/>
<g>
	<path style="fill:#A36338;" d="M87.082,512c-5.405,0-9.801-4.396-9.801-9.801v-36.464h60.659v36.464
		c0,5.404-4.396,9.801-9.801,9.801H87.082z"/>
	<path style="fill:#A36338;" d="M307.098,512c-5.405,0-9.801-4.396-9.801-9.801v-36.464h60.659v36.464
		c0,5.404-4.396,9.801-9.801,9.801H307.098z"/>
</g>
<g>
	<rect x="297.299" y="465.735" style="fill:#7A4E30;" width="60.659" height="29.742"/>
	<rect x="77.283" y="465.735" style="fill:#7A4E30;" width="60.659" height="29.742"/>
</g>
<polygon style="fill:#C6C5CA;" points="222.558,317.117 199.118,318.747 378.201,139.664 389.671,150.003 "/>
<polygon style="fill:#A3A2A8;" points="384.991,146.455 378.201,139.664 199.118,318.747 213.714,317.732 "/>
<path style="fill:#E08D48;" d="M65.327,483.727c-4.654,0-9.04-2.021-12.032-5.547c-2.94-3.46-4.208-8.008-3.475-12.475
	l25.387-154.554h282.765l25.387,154.553c0.733,4.469-0.535,9.018-3.477,12.48c-2.99,3.522-7.376,5.544-12.03,5.544H65.327V483.727z"
	/>
<path style="fill:#C1763E;" d="M229.442,409.189c-9.354,0-16.964-7.61-16.964-16.964s7.61-16.964,16.964-16.964
	s16.964,7.61,16.964,16.964S238.796,409.189,229.442,409.189z"/>
<path style="fill:#FFD278;" d="M217.619,401.992c-9.354,0-16.964-7.61-16.964-16.964s7.61-16.964,16.964-16.964
	c9.354,0,16.964,7.61,16.964,16.964S226.972,401.992,217.619,401.992z"/>
<path style="fill:#E08D48;" d="M116.262,61.222l7.912-48.178C125.419,5.485,131.94,0,139.683,0h153.817
	c7.742,0,14.263,5.484,15.506,13.041l7.913,48.181C316.919,61.222,116.262,61.222,116.262,61.222z"/>
<g>
	<path style="fill:#C1763E;" d="M107.271,478.18c-2.94-3.46-4.208-8.008-3.475-12.475l19.323-117.639
		c1.486-9.045,9.064-15.84,18.217-16.335l218.083-11.776l-1.447-8.806H129.184H75.209L49.82,465.705
		c-0.733,4.467,0.535,9.016,3.475,12.475c2.992,3.525,7.378,5.547,12.032,5.547h53.976
		C114.649,483.727,110.263,481.706,107.271,478.18z"/>
	<path style="fill:#C1763E;" d="M193.658,0h-53.976c-7.742,0-14.263,5.485-15.507,13.044l-7.912,48.178h53.976l7.912-48.178
		C179.394,5.485,185.916,0,193.658,0z"/>
</g>
<path style="fill:#C6C5CA;" d="M420.529,115.953c-1.973,0-3.947-0.753-5.453-2.259c-3.011-3.011-3.011-7.894,0-10.904l34.144-34.144
	c3.012-3.011,7.894-3.011,10.905,0s3.011,7.894,0,10.904l-34.144,34.144C424.475,115.199,422.501,115.953,420.529,115.953z"/>
<path style="fill:#A3A2A8;" d="M421.866,109.58l34.144-34.144c1.727-1.726,4.068-2.458,6.32-2.204
	c-0.188-1.676-0.92-3.301-2.205-4.586c-3.012-3.011-7.894-3.011-10.905,0l-34.144,34.144c-3.011,3.011-3.011,7.894,0,10.904
	c1.285,1.285,2.912,2.016,4.586,2.205C419.408,113.648,420.14,111.307,421.866,109.58z"/>
<path style="fill:#676775;" d="M399.057,159.74c-3.577,0-6.934-1.388-9.45-3.908l-15.533-15.533
	c-4.447-4.446-5.173-11.492-1.728-16.754l16.41-25.066c2.209-3.378,5.783-5.554,9.801-5.968c0.437-0.046,0.91-0.071,1.382-0.071
	c3.557,0,6.906,1.389,9.428,3.911l24.193,24.193c2.854,2.854,4.254,6.795,3.84,10.811c-0.413,4.017-2.59,7.588-5.969,9.801
	l-25.066,16.411C404.189,158.987,401.663,159.74,399.057,159.74z"/>
<path style="fill:#4C4C59;" d="M389.607,140.807l16.41-25.066c2.209-3.378,5.783-5.554,9.801-5.968
	c0.437-0.046,0.91-0.071,1.382-0.071c3.557,0,6.906,1.389,9.428,3.911l6.933,6.933c-0.001-0.001-0.002-0.002-0.003-0.003
	L409.365,96.35c-2.522-2.522-5.87-3.911-9.428-3.911c-0.472,0-0.945,0.025-1.382,0.071c-4.018,0.413-7.592,2.59-9.801,5.968
	l-16.41,25.066c-3.446,5.262-2.719,12.309,1.728,16.754l15.533,15.533c0.29,0.29,0.593,0.561,0.904,0.82
	C386.813,152.197,386.388,145.724,389.607,140.807z"/>
<g>
</g>
<g>
</g>
<g>
</g>
<g>
</g>
<g>
</g>
<g>
</g>
<g>
</g>
<g>
</g>
<g>
</g>
<g>
</g>
<g>
</g>
<g>
</g>
<g>
</g>
<g>
</g>
<g>
</g>
</svg>
